<svg viewBox="0 0 16.5 26.4992" fill="none" xmlns="http://www.w3.org/2000/svg" xmlns:xlink="http://www.w3.org/1999/xlink" x="0" y="0"><path id="Vector_37" d="M12.5962,14.362l1.8938,10.658c0.0212,0.125 0.0036,0.254 -0.0505,0.37c-0.054,0.115 -0.142,0.211 -0.2521,0.275c-0.1101,0.064 -0.237,0.092 -0.3639,0.082c-0.1269,-0.01 -0.2476,-0.059 -0.346,-0.14l-4.475,-3.358c-0.216,-0.162 -0.4785,-0.249 -0.7481,-0.249c-0.2697,0 -0.5321,0.087 -0.7482,0.249l-4.4825,3.357c-0.0983,0.081 -0.2189,0.129 -0.3456,0.14c-0.1267,0.01 -0.2535,-0.019 -0.3635,-0.082c-0.11,-0.064 -0.198,-0.16 -0.2522,-0.275c-0.0542,-0.115 -0.072,-0.244 -0.0512,-0.369l1.8925,-10.658M15.75,8.25c0,4.142 -3.3579,7.5 -7.5,7.5c-4.1421,0 -7.5,-3.358 -7.5,-7.5c0,-4.142 3.3579,-7.5 7.5,-7.5c4.1421,0 7.5,3.358 7.5,7.5z" stroke="white" stroke-width="1.5" stroke-linecap="round" stroke-linejoin="round"/></svg>