<svg viewBox="0 0 35.3333 32" fill="none" xmlns="http://www.w3.org/2000/svg" xmlns:xlink="http://www.w3.org/1999/xlink" x="0" y="0"><path id="Vector_60" d="M17.667,7.67v23.33M17.667,7.67c0,-1.77 -0.703,-3.47 -1.953,-4.72c-1.25,-1.25 -2.946,-1.95 -4.714,-1.95h-8.333c-0.442,0 -0.866,0.18 -1.179,0.49c-0.312,0.31 -0.488,0.73 -0.488,1.18v21.66c0,0.45 0.176,0.87 0.488,1.18c0.313,0.31 0.737,0.49 1.179,0.49h10c1.326,0 2.598,0.53 3.535,1.46c0.938,0.94 1.465,2.21 1.465,3.54M17.667,7.67c0,-1.77 0.702,-3.47 1.952,-4.72c1.251,-1.25 2.946,-1.95 4.714,-1.95h8.334c0.442,0 0.866,0.18 1.178,0.49c0.313,0.31 0.488,0.73 0.488,1.18v21.66c0,0.45 -0.175,0.87 -0.488,1.18c-0.312,0.31 -0.736,0.49 -1.178,0.49h-10c-1.326,0 -2.598,0.53 -3.536,1.46c-0.938,0.94 -1.464,2.21 -1.464,3.54" stroke="white" stroke-width="2" stroke-linecap="round" stroke-linejoin="round"/></svg>