<svg viewBox="0 0 43.6667 39.5" fill="none" xmlns="http://www.w3.org/2000/svg" xmlns:xlink="http://www.w3.org/1999/xlink" x="0" y="0"><path id="Vector_48" d="M30.1634,38.5035v-33.34c0,-1.1 -0.44,-2.16 -1.22,-2.94c-0.78,-0.78 -1.84,-1.22 -2.94,-1.22h-8.34c-1.1,0 -2.16,0.44 -2.94,1.22c-0.78,0.78 -1.22,1.84 -1.22,2.94v33.34M5.1634,9.3335h33.34c2.3,0 4.16,1.87 4.16,4.17v20.83c0,2.3 -1.86,4.17 -4.16,4.17h-33.34c-2.3,0 -4.16,-1.87 -4.16,-4.17v-20.83c0,-2.3 1.86,-4.17 4.16,-4.17z" stroke="white" stroke-width="2" stroke-linecap="round" stroke-linejoin="round"/></svg>