<svg viewBox="0 0 35.3333 32" fill="none" xmlns="http://www.w3.org/2000/svg" xmlns:xlink="http://www.w3.org/1999/xlink" x="0" y="0"><path id="Vector_4" d="M24.3366,30.9966v-26.66c0,-0.89 -0.35,-1.74 -0.98,-2.36c-0.62,-0.63 -1.47,-0.98 -2.36,-0.98h-6.66c-0.89,0 -1.74,0.35 -2.36,0.98c-0.63,0.62 -0.98,1.47 -0.98,2.36v26.66M4.3366,7.6666h26.66c1.84,0 3.34,1.49 3.34,3.33v16.67c0,1.84 -1.5,3.33 -3.34,3.33h-26.66c-1.84,0 -3.34,-1.49 -3.34,-3.33v-16.67c0,-1.84 1.5,-3.33 3.34,-3.33z" stroke="white" stroke-width="2" stroke-linecap="round" stroke-linejoin="round"/></svg>