<svg width="200" height="60" viewBox="0 0 200 60" fill="none" xmlns="http://www.w3.org/2000/svg">
<path d="M29.9925 0C13.4285 0 0 13.4281 0 29.9921C0 46.558 13.4285 59.9854 29.9925 59.9854C46.5573 59.9854 59.985 46.558 59.985 29.9921C59.985 13.4292 46.558 0.0014315 29.9921 0.0014315L29.9925 0ZM43.7469 43.2573C43.2082 44.1409 42.0571 44.4177 41.1764 43.8794C34.1334 39.5748 25.2685 38.6024 14.8284 40.9873C13.8224 41.218 12.8196 40.5873 12.5904 39.5816C12.3601 38.5755 12.9879 37.5727 13.9965 37.3435C25.4214 34.7315 35.2215 35.8558 43.1269 40.6865C44.008 41.2273 44.2877 42.3763 43.7469 43.2573ZM47.4179 35.0919C46.7396 36.1924 45.3005 36.5377 44.2014 35.8619C36.1412 30.9072 23.8506 29.4721 14.3149 32.3667C13.0782 32.7402 11.772 32.0433 11.3967 30.8087C11.0242 29.572 11.7215 28.2684 12.956 27.8923C23.8485 24.5873 37.3894 26.1882 46.6475 31.8775C47.7471 32.5544 48.0948 33.9938 47.4179 35.0919ZM47.7331 26.5879C38.0652 20.8464 22.1182 20.3185 12.889 23.1196C11.407 23.5691 9.83977 22.7324 9.39065 21.2504C8.94153 19.7677 9.77746 18.2015 11.2605 17.7509C21.855 14.5348 39.467 15.1562 50.5961 21.7629C51.9291 22.5541 52.3665 24.2757 51.5764 25.607C50.7884 26.94 49.0618 27.3794 47.7331 26.5879ZM81.5997 27.6882C76.4212 26.4533 75.4993 25.5866 75.4993 23.7653C75.4993 22.0448 77.1192 20.8869 79.5281 20.8869C81.8633 20.8869 84.1787 21.7662 86.6063 23.5763C86.6797 23.6311 86.7717 23.6529 86.8623 23.6386C86.953 23.625 87.0332 23.5752 87.0862 23.5003L89.6147 19.936C89.7186 19.7892 89.6903 19.5868 89.5503 19.4747C86.6611 17.1564 83.4076 16.0293 79.6048 16.0293C74.0134 16.0293 70.1078 19.3848 70.1078 24.1858C70.1078 29.3342 73.4769 31.1572 79.299 32.5644C84.2543 33.7058 85.0906 34.6621 85.0906 36.3715C85.0906 38.2658 83.3994 39.4434 80.6778 39.4434C77.6551 39.4434 75.1896 38.4251 72.4314 36.0366C72.3631 35.9775 72.2692 35.9507 72.1825 35.9557C72.0912 35.9632 72.0078 36.0055 71.9498 36.0753L69.1146 39.4495C68.9957 39.5895 69.0108 39.7986 69.1483 39.9197C72.3573 42.7845 76.3041 44.2977 80.5633 44.2977C86.5884 44.2977 90.4818 41.0056 90.4818 35.9102C90.4926 31.6089 87.9175 29.2272 81.6105 27.6928L81.5997 27.6882ZM104.113 22.581C101.501 22.581 99.3593 23.6096 97.5929 25.7173V23.3449C97.5929 23.1576 97.441 23.005 97.2541 23.005H92.6171C92.4298 23.005 92.2783 23.1576 92.2783 23.3449V49.7054C92.2783 49.8927 92.4298 50.0453 92.6171 50.0453H97.2541C97.441 50.0453 97.5929 49.8927 97.5929 49.7054V41.3845C99.3596 43.3672 101.502 44.336 104.113 44.336C108.966 44.336 113.878 40.6005 113.878 33.4598C113.885 26.3172 108.971 22.5806 104.118 22.5806L104.113 22.581ZM108.486 33.4598C108.486 37.0961 106.246 39.6335 103.039 39.6335C99.8682 39.6335 97.4765 36.9807 97.4765 33.4598C97.4765 29.9392 99.8682 27.286 103.039 27.286C106.194 27.2856 108.486 29.8819 108.486 33.4598ZM126.469 22.581C120.219 22.581 115.323 27.3931 115.323 33.5375C115.323 39.6149 120.186 44.3765 126.392 44.3765C132.664 44.3765 137.575 39.5805 137.575 33.4597C137.575 27.3601 132.697 22.581 126.469 22.581ZM126.469 39.6697C123.145 39.6697 120.639 36.999 120.639 33.458C120.639 29.9019 123.058 27.3214 126.392 27.3214C129.738 27.3214 132.26 29.9921 132.26 33.5357C132.26 37.091 129.825 39.6697 126.469 39.6697ZM150.92 23.005H145.817V17.7882C145.817 17.6013 145.666 17.4487 145.479 17.4487H140.842C140.655 17.4487 140.502 17.6013 140.502 17.7882V23.005H138.273C138.086 23.005 137.935 23.1576 137.935 23.3449V27.33C137.935 27.517 138.086 27.6699 138.273 27.6699H140.502V37.9814C140.502 42.1484 142.576 44.2612 146.667 44.2612C148.33 44.2612 149.71 43.9177 151.011 43.1803C151.116 43.1212 151.182 43.0073 151.182 42.8863V39.0913C151.182 38.9742 151.121 38.8635 151.021 38.8023C150.92 38.7389 150.794 38.7357 150.69 38.7869C149.797 39.2364 148.934 39.4437 147.968 39.4437C146.481 39.4437 145.817 38.7683 145.817 37.2544V27.6717H150.92C151.107 27.6717 151.258 27.5191 151.258 27.3318V23.3471C151.265 23.1598 151.114 23.0072 150.925 23.0072L150.92 23.005ZM168.698 23.0254V22.3847C168.698 20.4997 169.421 19.6592 171.042 19.6592C172.008 19.6592 172.785 19.8511 173.655 20.1412C173.762 20.1749 173.873 20.1581 173.96 20.094C174.05 20.0298 174.1 19.9271 174.1 19.8182V15.9108C174.1 15.7614 174.004 15.6293 173.86 15.5852C172.942 15.3119 171.766 15.0315 170.006 15.0315C165.724 15.0315 163.46 17.4433 163.46 22.0036V22.9849H161.232C161.045 22.9849 160.892 23.1375 160.892 23.3245V27.33C160.892 27.517 161.045 27.6699 161.232 27.6699H163.46V43.5749C163.46 43.7622 163.611 43.9148 163.798 43.9148H168.435C168.622 43.9148 168.775 43.7622 168.775 43.5749V27.671H173.104L179.736 43.5721C178.983 45.2429 178.243 45.5752 177.232 45.5752C176.415 45.5752 175.555 45.3313 174.675 44.85C174.593 44.8045 174.494 44.797 174.405 44.8246C174.317 44.8557 174.242 44.9216 174.205 45.0076L172.633 48.4555C172.558 48.6184 172.622 48.8097 172.779 48.8942C174.42 49.7828 175.901 50.162 177.731 50.162C181.155 50.162 183.048 48.5672 184.716 44.2766L192.76 23.4896C192.801 23.385 192.789 23.2668 192.725 23.174C192.661 23.082 192.558 23.0265 192.446 23.0265H187.618C187.474 23.0265 187.344 23.1185 187.297 23.2543L182.352 37.379L176.936 23.245C176.887 23.1135 176.76 23.0265 176.619 23.0265H168.697L168.698 23.0254ZM158.391 23.005H153.754C153.566 23.005 153.414 23.1576 153.414 23.3449V43.575C153.414 43.7623 153.566 43.9148 153.754 43.9148H158.391C158.577 43.9148 158.73 43.7623 158.73 43.575V23.3463C158.731 23.3016 158.722 23.2573 158.705 23.216C158.688 23.1747 158.663 23.1372 158.631 23.1056C158.599 23.074 158.562 23.049 158.52 23.032C158.479 23.015 158.435 23.0063 158.39 23.0064L158.391 23.005ZM156.098 13.7938C154.261 13.7938 152.771 15.2808 152.771 17.1178C152.771 18.9558 154.262 20.4446 156.098 20.4446C157.935 20.4446 159.424 18.9558 159.424 17.1178C159.424 15.2812 157.934 13.7938 156.1 13.7938H156.098ZM196.72 29.5094C194.885 29.5094 193.457 28.0356 193.457 26.2459C193.457 24.4562 194.903 22.9656 196.737 22.9656C198.572 22.9656 200 24.439 200 26.2273C200 28.017 198.553 29.5094 196.72 29.5094ZM196.738 23.2901C195.066 23.2901 193.801 24.6188 193.801 26.2459C193.801 27.8723 195.057 29.1831 196.721 29.1831C198.392 29.1831 199.658 27.8554 199.658 26.2273C199.658 24.6009 198.401 23.2901 196.739 23.2901H196.738ZM197.461 26.5628L198.384 27.8551H197.606L196.775 26.6696H196.06V27.8551H195.409V24.4297H196.936C197.732 24.4297 198.256 24.8369 198.256 25.5224C198.259 26.084 197.933 26.4271 197.464 26.5629L197.461 26.5628ZM196.91 25.0175H196.06V26.1009H196.91C197.334 26.1009 197.587 25.8935 197.587 25.5586C197.587 25.2062 197.332 25.0175 196.91 25.0175Z" fill="#2EBD59"/>
</svg>
