<svg width="200" height="43" viewBox="0 0 200 43" fill="none" xmlns="http://www.w3.org/2000/svg">
<path d="M200 19.3158V15.7985H195.632V10.3304L195.485 10.3757L191.383 11.6309L191.302 11.6555V15.7987H184.826V13.4905C184.826 12.4158 185.067 11.5934 185.54 11.0449C186.011 10.503 186.683 10.2275 187.541 10.2275C188.158 10.2275 188.797 10.3728 189.44 10.6593L189.601 10.7313V7.02706L189.525 6.9992C188.925 6.78368 188.11 6.67514 187.099 6.67514C185.825 6.67514 184.667 6.95238 183.658 7.50184C182.648 8.05207 181.853 8.83757 181.297 9.83627C180.742 10.8338 180.46 11.9859 180.46 13.2609V15.7985H177.419V19.3158H180.46V34.1335H184.826V19.3158H191.302V28.7322C191.302 32.6103 193.131 34.5756 196.739 34.5756C197.331 34.5756 197.955 34.5062 198.592 34.3701C199.241 34.2305 199.683 34.091 199.943 33.942L200 33.9079V30.3581L199.823 30.4756C199.586 30.6334 199.291 30.7625 198.945 30.8584C198.597 30.9562 198.307 31.0051 198.082 31.0051C197.237 31.0051 196.612 30.7774 196.224 30.328C195.831 29.8745 195.632 29.0814 195.632 27.9721V19.3158H200ZM167.669 31.0057C166.084 31.0057 164.835 30.4802 163.954 29.4451C163.068 28.4048 162.619 26.9217 162.619 25.0373C162.619 23.0931 163.068 21.5714 163.955 20.5128C164.836 19.4611 166.073 18.9273 167.633 18.9273C169.147 18.9273 170.352 19.4371 171.216 20.4433C172.083 21.4548 172.523 22.9642 172.523 24.9311C172.523 26.9221 172.109 28.4515 171.293 29.4746C170.482 30.4899 169.263 31.0057 167.669 31.0057ZM167.863 15.3568C164.84 15.3568 162.438 16.2427 160.726 17.9899C159.015 19.7373 158.147 22.1555 158.147 25.1779C158.147 28.0487 158.994 30.3577 160.665 32.04C162.335 33.7228 164.608 34.5752 167.421 34.5752C170.352 34.5752 172.705 33.6769 174.417 31.9055C176.128 30.136 176.995 27.7407 176.995 24.7889C176.995 21.8733 176.181 19.547 174.576 17.876C172.97 16.2042 170.711 15.3568 167.863 15.3568ZM151.108 15.3568C149.051 15.3568 147.35 15.8828 146.051 16.92C144.743 17.9634 144.08 19.3318 144.08 20.9877C144.08 21.8485 144.223 22.6131 144.505 23.2616C144.788 23.9123 145.227 24.4851 145.81 24.9659C146.388 25.4428 147.28 25.9423 148.463 26.4506C149.458 26.8598 150.199 27.2059 150.67 27.4787C151.131 27.7461 151.458 28.0148 151.642 28.2766C151.822 28.5327 151.913 28.8833 151.913 29.3159C151.913 30.5477 150.99 31.1471 149.092 31.1471C148.388 31.1471 147.585 31.0001 146.705 30.7103C145.832 30.4248 145.007 30.0068 144.261 29.4709L144.079 29.3409V33.5444L144.146 33.5754C144.764 33.8605 145.543 34.101 146.461 34.2902C147.377 34.4796 148.21 34.576 148.933 34.576C151.164 34.576 152.962 34.0474 154.273 33.004C155.593 31.9535 156.261 30.5528 156.261 28.8396C156.261 27.6037 155.901 26.5438 155.192 25.6891C154.487 24.8413 153.264 24.063 151.557 23.375C150.198 22.8294 149.327 22.3765 148.968 22.0288C148.622 21.6929 148.446 21.218 148.446 20.6165C148.446 20.0833 148.663 19.6561 149.108 19.3102C149.557 18.9625 150.183 18.7857 150.966 18.7857C151.694 18.7857 152.438 18.9006 153.178 19.1258C153.918 19.351 154.568 19.6526 155.11 20.0216L155.288 20.1434V16.156L155.22 16.1266C154.72 15.912 154.06 15.7284 153.259 15.5795C152.461 15.4314 151.737 15.3568 151.108 15.3568ZM132.698 31.0057C131.113 31.0057 129.864 30.4802 128.983 29.4451C128.097 28.4048 127.649 26.9221 127.649 25.0373C127.649 23.0931 128.098 21.5714 128.984 20.5128C129.865 19.4611 131.102 18.9273 132.663 18.9273C134.176 18.9273 135.381 19.4371 136.245 20.4433C137.112 21.4548 137.553 22.9642 137.553 24.9311C137.553 26.9221 137.138 28.4515 136.322 29.4746C135.511 30.4899 134.292 31.0057 132.698 31.0057ZM132.892 15.3568C129.868 15.3568 127.467 16.2427 125.755 17.9899C124.044 19.7373 123.176 22.1555 123.176 25.1779C123.176 28.0498 124.024 30.3577 125.694 32.04C127.365 33.7228 129.638 34.5752 132.45 34.5752C135.38 34.5752 137.735 33.6769 139.446 31.9055C141.157 30.136 142.024 27.7407 142.024 24.7889C142.024 21.8733 141.211 19.547 139.605 17.876C137.999 16.2042 135.74 15.3568 132.892 15.3568ZM116.549 18.9737V15.7985H112.236V34.1331H116.549V24.7542C116.549 23.1595 116.91 21.8493 117.624 20.8597C118.328 19.8819 119.267 19.3864 120.413 19.3864C120.802 19.3864 121.238 19.4504 121.71 19.5772C122.177 19.7031 122.516 19.8399 122.716 19.9838L122.897 20.1152V15.7671L122.827 15.7371C122.425 15.5665 121.857 15.4804 121.138 15.4804C120.054 15.4804 119.085 15.8286 118.254 16.5143C117.525 17.117 116.998 17.9433 116.595 18.9737H116.549ZM104.512 15.3568C102.534 15.3568 100.769 15.7811 99.2677 16.6174C97.7635 17.4557 96.6001 18.6525 95.8086 20.1744C95.0206 21.6926 94.6205 23.4659 94.6205 25.4436C94.6205 27.1759 95.0084 28.7657 95.7752 30.1668C96.5423 31.5702 97.628 32.6682 99.0025 33.4297C100.375 34.1902 101.961 34.5758 103.718 34.5758C105.767 34.5758 107.517 34.166 108.92 33.3579L108.977 33.3254V29.3741L108.796 29.5065C108.16 29.9694 107.45 30.339 106.686 30.6052C105.923 30.8712 105.228 31.0057 104.619 31.0057C102.927 31.0057 101.568 30.4762 100.582 29.4322C99.5937 28.3869 99.0926 26.919 99.0926 25.0719C99.0926 23.2132 99.6152 21.7077 100.645 20.5967C101.672 19.4891 103.033 18.9273 104.69 18.9273C106.108 18.9273 107.489 19.4073 108.796 20.3553L108.977 20.4867V16.3234L108.918 16.2905C108.427 16.0152 107.756 15.7878 106.923 15.6154C106.094 15.4434 105.283 15.3568 104.512 15.3568ZM91.6502 15.7987H87.3373V34.1331H91.6502V15.7987ZM89.5378 7.98804C88.828 7.98804 88.2089 8.22968 87.7003 8.70852C87.1895 9.18872 86.9304 9.79331 86.9304 10.5068C86.9304 11.2091 87.1864 11.8027 87.6923 12.2701C88.195 12.7362 88.816 12.9724 89.538 12.9724C90.2599 12.9724 90.8832 12.7362 91.3919 12.2709C91.9038 11.8027 92.1635 11.2093 92.1635 10.5068C92.1635 9.81827 91.9108 9.21987 91.413 8.72787C90.9156 8.23684 90.2845 7.98804 89.5378 7.98804ZM78.777 14.4459V34.1331H83.1785V8.5493H77.0866L69.3435 27.5522L61.8293 8.5493H55.4894V34.1329H59.6257V14.444H59.7677L67.7025 34.1331H70.824L78.635 14.4459H78.777Z" fill="#706D6E"/>
<path d="M20.2889 20.2889H0V0H20.2889V20.2889Z" fill="#F1511B"/>
<path d="M42.6902 20.2889H22.4016V0H42.6902V20.2889Z" fill="#80CC28"/>
<path d="M20.2883 42.6981H0V22.4094H20.2883V42.6981Z" fill="#00ADEF"/>
<path d="M42.6902 42.6981H22.4016V22.4094H42.6902V42.6981Z" fill="#FBBC09"/>
</svg>
