<svg viewBox="0 0 32 35.3333" fill="none" xmlns="http://www.w3.org/2000/svg" xmlns:xlink="http://www.w3.org/1999/xlink" x="0" y="0"><path id="Vector_6" d="M31,5.9967c0,2.76 -6.716,5 -15,5c-8.284,0 -15,-2.24 -15,-5M31,5.9967c0,-2.76 -6.716,-5 -15,-5c-8.284,0 -15,2.24 -15,5M31,5.9967v23.34c0,1.32 -1.58,2.59 -4.393,3.53c-2.813,0.94 -6.629,1.47 -10.607,1.47c-3.978,0 -7.794,-0.53 -10.607,-1.47c-2.813,-0.94 -4.393,-2.21 -4.393,-3.53v-23.34M1,17.6667c0,1.33 1.58,2.6 4.393,3.54c2.813,0.93 6.629,1.46 10.607,1.46c3.978,0 7.794,-0.53 10.607,-1.46c2.813,-0.94 4.393,-2.21 4.393,-3.54" stroke="white" stroke-width="2" stroke-linecap="round" stroke-linejoin="round"/></svg>