<svg viewBox="0 0 35.3587 25.3339" fill="none" xmlns="http://www.w3.org/2000/svg" xmlns:xlink="http://www.w3.org/1999/xlink" x="0" y="0"><path id="Vector_2" d="M34.3317,9.3372v10M7.6647,13.4972v5.84c0,1.32 1.054,2.59 2.929,3.53c1.875,0.94 4.419,1.47 7.071,1.47c2.652,0 5.196,-0.53 7.071,-1.47c1.875,-0.94 2.929,-2.21 2.929,-3.53v-5.84M33.3647,10.8672c0.298,-0.13 0.552,-0.34 0.728,-0.62c0.177,-0.27 0.269,-0.59 0.266,-0.92c-0.003,-0.32 -0.102,-0.64 -0.285,-0.91c-0.182,-0.27 -0.44,-0.48 -0.741,-0.61l-14.285,-6.51c-0.434,-0.19 -0.906,-0.3 -1.383,-0.3c-0.477,0 -0.949,0.11 -1.383,0.3l-14.284,6.5c-0.296,0.13 -0.549,0.35 -0.726,0.62c-0.177,0.27 -0.272,0.59 -0.272,0.91c0,0.32 0.095,0.64 0.272,0.91c0.177,0.27 0.43,0.49 0.726,0.62l14.284,6.51c0.434,0.2 0.906,0.3 1.383,0.3c0.477,0 0.949,-0.1 1.383,-0.3z" stroke="white" stroke-width="2" stroke-linecap="round" stroke-linejoin="round"/></svg>