<svg viewBox="0 0 35.3333 30.3332" fill="none" xmlns="http://www.w3.org/2000/svg" xmlns:xlink="http://www.w3.org/1999/xlink" x="0" y="0"><path id="Vector_61" d="M30.0237,18.353c2.643,-2.64 4.31,-4.85 4.31,-8.19c0,-1.85 -0.563,-3.66 -1.614,-5.19c-1.051,-1.53 -2.541,-2.7 -4.272,-3.37c-1.732,-0.66 -3.625,-0.78 -5.428,-0.35c-1.803,0.44 -3.432,1.41 -4.671,2.79M30.0237,18.353c-0.329,0.33 -0.719,0.59 -1.149,0.77c-0.429,0.18 -0.89,0.27 -1.355,0.27c-0.465,0 -0.925,-0.09 -1.355,-0.27c-0.429,-0.18 -0.819,-0.44 -1.148,-0.77c0.356,0.33 0.643,0.72 0.843,1.15c0.2,0.44 0.31,0.91 0.322,1.39c0.012,0.48 -0.074,0.96 -0.252,1.4c-0.178,0.45 -0.445,0.85 -0.784,1.19c-0.339,0.34 -0.744,0.61 -1.19,0.79c-0.445,0.17 -0.923,0.26 -1.402,0.25c-0.48,-0.01 -0.952,-0.12 -1.388,-0.32c-0.436,-0.2 -0.827,-0.49 -1.149,-0.85c0.329,0.33 0.59,0.72 0.769,1.15c0.178,0.43 0.27,0.89 0.271,1.35c0,0.47 -0.091,0.93 -0.268,1.36c-0.177,0.42 -0.437,0.81 -0.765,1.14c-0.317,0.32 -0.694,0.57 -1.11,0.74c-0.415,0.17 -0.86,0.25 -1.308,0.24c-0.448,-0.01 -0.889,-0.11 -1.299,-0.29c-0.409,-0.18 -0.777,-0.45 -1.082,-0.77l-9.225,-8.94c-2.5,-2.5 -5,-5.33 -5,-9.17c0.001,-1.85 0.564,-3.66 1.615,-5.19c1.051,-1.53 2.54,-2.7 4.272,-3.36c1.732,-0.67 3.624,-0.79 5.427,-0.36c1.803,0.44 3.432,1.41 4.671,2.79c0.186,0.17 0.429,0.27 0.682,0.27c0.253,0 0.497,-0.1 0.682,-0.27M30.0237,18.353c0.625,-0.62 0.976,-1.47 0.976,-2.35c0,-0.89 -0.351,-1.73 -0.976,-2.36l-3.135,-3.14c-0.373,-0.37 -0.816,-0.67 -1.304,-0.87c-0.487,-0.2 -1.01,-0.3 -1.537,-0.3c-0.528,0 -1.05,0.1 -1.538,0.3c-0.487,0.2 -0.93,0.5 -1.303,0.87l-2.85,2.85c-0.625,0.63 -1.473,0.98 -2.357,0.98c-0.884,0 -1.731,-0.35 -2.356,-0.98c-0.625,-0.62 -0.976,-1.47 -0.976,-2.35c0,-0.89 0.351,-1.73 0.976,-2.36l4.705,-4.6" stroke="white" stroke-width="2" stroke-linecap="round" stroke-linejoin="round"/></svg>