<svg viewBox="0 0 21.5 21.5" fill="none" xmlns="http://www.w3.org/2000/svg" xmlns:xlink="http://www.w3.org/1999/xlink" x="0" y="0"><path id="Vector_56" d="M16.25,5.25h0.01M5.75,0.75h10c2.761,0 5,2.24 5,5v10c0,2.76 -2.239,5 -5,5h-10c-2.761,0 -5,-2.24 -5,-5v-10c0,-2.76 2.239,-5 5,-5zM14.75,10.12c0.123,0.83 -0.019,1.68 -0.406,2.43c-0.388,0.75 -1.001,1.35 -1.752,1.73c-0.752,0.38 -1.604,0.51 -2.434,0.38c-0.831,-0.14 -1.598,-0.53 -2.193,-1.12c-0.595,-0.6 -0.987,-1.37 -1.121,-2.2c-0.134,-0.83 -0.002,-1.68 0.376,-2.43c0.379,-0.75 0.984,-1.37 1.731,-1.75c0.747,-0.39 1.597,-0.53 2.429,-0.41c0.849,0.13 1.635,0.52 2.242,1.13c0.607,0.61 1.002,1.39 1.128,2.24z" stroke="white" stroke-width="1.5" stroke-linecap="round" stroke-linejoin="round"/></svg>