<svg viewBox="0 0 32.0114 35.342" fill="none" xmlns="http://www.w3.org/2000/svg" xmlns:xlink="http://www.w3.org/1999/xlink" x="0" y="0"><path id="Vector_3" d="M2.6727,21.001c-0.316,0 -0.625,-0.08 -0.892,-0.25c-0.267,-0.17 -0.481,-0.41 -0.617,-0.69c-0.137,-0.29 -0.189,-0.61 -0.152,-0.92c0.037,-0.31 0.162,-0.61 0.361,-0.85l16.5,-17c0.123,-0.15 0.292,-0.24 0.478,-0.28c0.186,-0.03 0.378,0 0.545,0.09c0.166,0.09 0.298,0.23 0.372,0.4c0.075,0.18 0.088,0.37 0.038,0.55l-3.2,10.04c-0.094,0.25 -0.126,0.52 -0.092,0.79c0.033,0.27 0.131,0.52 0.285,0.74c0.155,0.22 0.36,0.4 0.599,0.53c0.239,0.12 0.505,0.19 0.775,0.19h11.666c0.316,0 0.625,0.08 0.892,0.25c0.267,0.17 0.481,0.41 0.617,0.69c0.137,0.29 0.189,0.61 0.152,0.92c-0.037,0.31 -0.162,0.61 -0.361,0.85l-16.5,17c-0.123,0.15 -0.292,0.24 -0.478,0.28c-0.186,0.03 -0.378,0 -0.545,-0.09c-0.166,-0.09 -0.298,-0.23 -0.372,-0.4c-0.075,-0.18 -0.088,-0.37 -0.038,-0.55l3.2,-10.04c0.094,-0.25 0.126,-0.52 0.092,-0.79c-0.033,-0.27 -0.131,-0.52 -0.285,-0.74c-0.155,-0.22 -0.36,-0.4 -0.599,-0.53c-0.239,-0.12 -0.505,-0.19 -0.775,-0.19z" stroke="white" stroke-width="2" stroke-linecap="round" stroke-linejoin="round"/></svg>