<svg viewBox="0 0 21.5 20.5" fill="none" xmlns="http://www.w3.org/2000/svg" xmlns:xlink="http://www.w3.org/1999/xlink" x="0" y="0"><g id="Vector_55">
<path d="M14.75,6.75c1.5913,0 3.1174,0.63 4.2426,1.76c1.1253,1.12 1.7574,2.65 1.7574,4.24v7h-4v-7c0,-0.53 -0.2107,-1.04 -0.5858,-1.41c-0.3751,-0.38 -0.8838,-0.59 -1.4142,-0.59c-0.5304,0 -1.0391,0.21 -1.4142,0.59c-0.3751,0.37 -0.5858,0.88 -0.5858,1.41v7h-4v-7c0,-1.59 0.6321,-3.12 1.7574,-4.24c1.1252,-1.13 2.6513,-1.76 4.2426,-1.76z" stroke="white" stroke-width="1.5" stroke-linecap="round" stroke-linejoin="round"/>
<path d="M4.75,7.75h-4v12h4z" stroke="white" stroke-width="1.5" stroke-linecap="round" stroke-linejoin="round"/>
<path d="M2.75,4.75c1.1046,0 2,-0.9 2,-2c0,-1.1 -0.8954,-2 -2,-2c-1.1046,0 -2,0.9 -2,2c0,1.1 0.8954,2 2,2z" stroke="white" stroke-width="1.5" stroke-linecap="round" stroke-linejoin="round"/>
</g></svg>