<svg width="80" height="80" viewBox="0 0 80 80" fill="none" xmlns="http://www.w3.org/2000/svg">
<rect width="80" height="80" rx="20" fill="#8478E0"/>
<path d="M53.3307 36.6668C53.3307 44.9885 44.0991 53.6552 40.9991 56.3318C40.7103 56.549 40.3587 56.6664 39.9974 56.6664C39.6361 56.6664 39.2845 56.549 38.9957 56.3318C35.8957 53.6552 26.6641 44.9885 26.6641 36.6668C26.6641 33.1306 28.0688 29.7392 30.5693 27.2387C33.0698 24.7383 36.4612 23.3335 39.9974 23.3335C43.5336 23.3335 46.925 24.7383 49.4255 27.2387C51.926 29.7392 53.3307 33.1306 53.3307 36.6668Z" stroke="white" stroke-width="2" stroke-linecap="round" stroke-linejoin="round"/>
<path d="M39.9974 41.6668C42.7588 41.6668 44.9974 39.4283 44.9974 36.6668C44.9974 33.9054 42.7588 31.6668 39.9974 31.6668C37.236 31.6668 34.9974 33.9054 34.9974 36.6668C34.9974 39.4283 37.236 41.6668 39.9974 41.6668Z" stroke="white" stroke-width="2" stroke-linecap="round" stroke-linejoin="round"/>
</svg>
