<svg width="80" height="80" viewBox="0 0 80 80" fill="none" xmlns="http://www.w3.org/2000/svg">
<rect width="80" height="80" rx="20" fill="#8478E0"/>
<path d="M43.0559 47.6134C43.4001 47.7715 43.7879 47.8076 44.1554 47.7158C44.5229 47.624 44.8482 47.4097 45.0776 47.1084L45.6693 46.3334C45.9798 45.9194 46.3824 45.5834 46.8452 45.3519C47.3081 45.1205 47.8185 45 48.3359 45H53.3359C54.22 45 55.0678 45.3512 55.693 45.9764C56.3181 46.6015 56.6693 47.4493 56.6693 48.3334V53.3334C56.6693 54.2174 56.3181 55.0653 55.693 55.6904C55.0678 56.3155 54.22 56.6667 53.3359 56.6667C45.3794 56.6667 37.7488 53.506 32.1227 47.8799C26.4966 42.2538 23.3359 34.6232 23.3359 26.6667C23.3359 25.7827 23.6871 24.9348 24.3122 24.3097C24.9374 23.6846 25.7852 23.3334 26.6693 23.3334H31.6693C32.5533 23.3334 33.4012 23.6846 34.0263 24.3097C34.6514 24.9348 35.0026 25.7827 35.0026 26.6667V31.6667C35.0026 32.1842 34.8821 32.6946 34.6507 33.1574C34.4193 33.6203 34.0833 34.0229 33.6693 34.3334L32.8893 34.9184C32.5833 35.152 32.3676 35.4843 32.2789 35.859C32.1902 36.2336 32.2339 36.6273 32.4026 36.9734C34.6804 41.5998 38.4266 45.3414 43.0559 47.6134Z" stroke="white" stroke-width="2" stroke-linecap="round" stroke-linejoin="round"/>
</svg>
