<svg viewBox="0 0 27 43.6653" fill="none" xmlns="http://www.w3.org/2000/svg" xmlns:xlink="http://www.w3.org/1999/xlink" x="0" y="0"><path id="Vector_45" d="M20.744,23.6835l3.156,17.77c0.035,0.21 0.006,0.42 -0.084,0.61c-0.09,0.19 -0.237,0.35 -0.42,0.46c-0.184,0.11 -0.395,0.16 -0.607,0.14c-0.211,-0.02 -0.412,-0.1 -0.577,-0.23l-7.458,-5.6c-0.36,-0.27 -0.797,-0.42 -1.247,-0.42c-0.449,0 -0.887,0.15 -1.247,0.42l-7.47,5.59c-0.164,0.14 -0.365,0.22 -0.576,0.24c-0.212,0.01 -0.423,-0.03 -0.606,-0.14c-0.184,-0.11 -0.33,-0.27 -0.421,-0.46c-0.09,-0.19 -0.12,-0.4 -0.085,-0.61l3.154,-17.77M26,13.5035c0,6.9 -5.596,12.5 -12.5,12.5c-6.904,0 -12.5,-5.6 -12.5,-12.5c0,-6.91 5.596,-12.5 12.5,-12.5c6.904,0 12.5,5.59 12.5,12.5z" stroke="white" stroke-width="2" stroke-linecap="round" stroke-linejoin="round"/></svg>