<svg viewBox="0 0 16 14.5" fill="none" xmlns="http://www.w3.org/2000/svg" xmlns:xlink="http://www.w3.org/1999/xlink" x="0" y="0"><path id="Vector_23" d="M11,13.9965v-12c0,-0.39 -0.158,-0.78 -0.4393,-1.06c-0.2813,-0.28 -0.6629,-0.44 -1.0607,-0.44h-3c-0.3978,0 -0.7794,0.16 -1.0607,0.44c-0.2813,0.28 -0.4393,0.67 -0.4393,1.06v12M2,3.4965h12c0.8284,0 1.5,0.68 1.5,1.5v7.5c0,0.83 -0.6716,1.5 -1.5,1.5h-12c-0.8284,0 -1.5,-0.67 -1.5,-1.5v-7.5c0,-0.82 0.6716,-1.5 1.5,-1.5z" stroke="white" stroke-linecap="round" stroke-linejoin="round"/></svg>