<svg viewBox="0 0 43.6766 43.6766" fill="none" xmlns="http://www.w3.org/2000/svg" xmlns:xlink="http://www.w3.org/1999/xlink" x="0" y="0"><path id="Vector_50" d="M38.5053,1.0084v8.33M42.6713,5.1684h-8.333M19.7903,2.6984c0.089,-0.48 0.343,-0.91 0.717,-1.22c0.374,-0.31 0.845,-0.48 1.331,-0.48c0.486,0 0.957,0.17 1.331,0.48c0.374,0.31 0.628,0.74 0.717,1.22l2.19,11.58c0.155,0.82 0.555,1.58 1.147,2.17c0.593,0.6 1.35,1 2.173,1.15l11.58,2.19c0.477,0.09 0.909,0.34 1.22,0.72c0.31,0.37 0.48,0.84 0.48,1.33c0,0.49 -0.17,0.96 -0.48,1.33c-0.311,0.37 -0.743,0.63 -1.22,0.72l-11.58,2.19c-0.823,0.15 -1.58,0.55 -2.173,1.15c-0.592,0.59 -0.992,1.35 -1.147,2.17l-2.19,11.58c-0.089,0.48 -0.343,0.91 -0.717,1.22c-0.374,0.31 -0.845,0.48 -1.331,0.48c-0.486,0 -0.957,-0.17 -1.331,-0.48c-0.374,-0.31 -0.628,-0.74 -0.717,-1.22l-2.189,-11.58c-0.156,-0.82 -0.556,-1.58 -1.148,-2.17c-0.593,-0.6 -1.35,-1 -2.173,-1.15l-11.579,-2.19c-0.478,-0.09 -0.91,-0.35 -1.221,-0.72c-0.31,-0.37 -0.48,-0.84 -0.48,-1.33c0,-0.49 0.17,-0.96 0.48,-1.33c0.311,-0.38 0.743,-0.63 1.221,-0.72l11.579,-2.19c0.823,-0.15 1.58,-0.55 2.173,-1.15c0.592,-0.59 0.992,-1.35 1.148,-2.17zM9.3383,38.5084c0,2.3 -1.865,4.16 -4.167,4.16c-2.301,0 -4.166,-1.86 -4.166,-4.16c0,-2.3 1.865,-4.17 4.166,-4.17c2.302,0 4.167,1.87 4.167,4.17z" stroke="white" stroke-width="2" stroke-linecap="round" stroke-linejoin="round"/></svg>