<svg viewBox="0 0 17.6707 17.6707" fill="none" xmlns="http://www.w3.org/2000/svg" xmlns:xlink="http://www.w3.org/1999/xlink" x="0" y="0"><path id="Vector_5" d="M15.5023,0.5054v3.33M17.1683,2.1654h-3.333M8.0163,1.1754c0.036,-0.19 0.137,-0.36 0.287,-0.48c0.149,-0.13 0.338,-0.2 0.532,-0.2c0.194,0 0.383,0.07 0.532,0.2c0.15,0.12 0.251,0.29 0.287,0.48l0.876,4.64c0.062,0.33 0.222,0.63 0.459,0.87c0.237,0.23 0.54,0.39 0.869,0.45l4.632,0.88c0.191,0.04 0.364,0.14 0.488,0.29c0.124,0.15 0.192,0.34 0.192,0.53c0,0.19 -0.068,0.38 -0.192,0.53c-0.124,0.15 -0.297,0.25 -0.488,0.29l-4.632,0.87c-0.329,0.07 -0.632,0.23 -0.869,0.46c-0.237,0.24 -0.397,0.54 -0.459,0.87l-0.876,4.63c-0.036,0.2 -0.137,0.37 -0.287,0.49c-0.149,0.13 -0.338,0.2 -0.532,0.2c-0.194,0 -0.383,-0.07 -0.532,-0.2c-0.15,-0.12 -0.251,-0.29 -0.287,-0.49l-0.876,-4.63c-0.062,-0.33 -0.222,-0.63 -0.459,-0.87c-0.237,-0.23 -0.54,-0.39 -0.869,-0.46l-4.632,-0.87c-0.191,-0.04 -0.364,-0.14 -0.488,-0.29c-0.124,-0.15 -0.192,-0.34 -0.192,-0.53c0,-0.19 0.068,-0.38 0.192,-0.53c0.124,-0.15 0.297,-0.25 0.488,-0.29l4.632,-0.88c0.329,-0.06 0.632,-0.22 0.869,-0.45c0.237,-0.24 0.397,-0.54 0.459,-0.87zM3.8353,15.5054c0,0.92 -0.746,1.66 -1.667,1.66c-0.92,0 -1.666,-0.74 -1.666,-1.66c0,-0.92 0.746,-1.67 1.666,-1.67c0.921,0 1.667,0.75 1.667,1.67z" stroke="white" stroke-linecap="round" stroke-linejoin="round"/></svg>