<svg viewBox="0 0 35.3363 33.7868" fill="none" xmlns="http://www.w3.org/2000/svg" xmlns:xlink="http://www.w3.org/1999/xlink" x="0" y="0"><path id="Vector_8" d="M16.8777,1.4865c0.073,-0.14 0.186,-0.27 0.326,-0.35c0.14,-0.09 0.301,-0.14 0.466,-0.14c0.165,0 0.326,0.05 0.466,0.14c0.14,0.08 0.253,0.21 0.326,0.35l3.85,7.8c0.253,0.52 0.628,0.96 1.091,1.3c0.463,0.33 1.001,0.55 1.567,0.64l8.61,1.26c0.163,0.02 0.316,0.09 0.442,0.2c0.127,0.1 0.22,0.24 0.271,0.4c0.051,0.15 0.057,0.32 0.018,0.48c-0.04,0.16 -0.123,0.31 -0.241,0.42l-6.227,6.07c-0.41,0.4 -0.718,0.89 -0.895,1.44c-0.177,0.54 -0.22,1.12 -0.123,1.69l1.47,8.56c0.029,0.17 0.011,0.33 -0.051,0.49c-0.062,0.15 -0.166,0.28 -0.3,0.38c-0.134,0.1 -0.292,0.16 -0.458,0.17c-0.165,0.01 -0.33,-0.03 -0.476,-0.1l-7.697,-4.05c-0.507,-0.27 -1.071,-0.41 -1.644,-0.41c-0.573,0 -1.137,0.14 -1.644,0.41l-7.695,4.05c-0.146,0.07 -0.311,0.11 -0.476,0.1c-0.165,-0.01 -0.323,-0.07 -0.457,-0.17c-0.134,-0.1 -0.237,-0.23 -0.299,-0.38c-0.062,-0.16 -0.08,-0.32 -0.051,-0.49l1.468,-8.56c0.097,-0.57 0.055,-1.15 -0.122,-1.69c-0.178,-0.55 -0.485,-1.04 -0.896,-1.44l-6.227,-6.07c-0.119,-0.11 -0.203,-0.26 -0.243,-0.42c-0.04,-0.16 -0.035,-0.33 0.016,-0.48c0.052,-0.16 0.146,-0.3 0.272,-0.41c0.127,-0.1 0.281,-0.17 0.445,-0.2l8.608,-1.25c0.567,-0.09 1.106,-0.3 1.57,-0.64c0.463,-0.34 0.838,-0.78 1.092,-1.3z" stroke="#6C5CE7" stroke-width="2" stroke-linecap="round" stroke-linejoin="round"/></svg>