<svg viewBox="0 0 26.5023 25.3401" fill="none" xmlns="http://www.w3.org/2000/svg" xmlns:xlink="http://www.w3.org/1999/xlink" x="0" y="0"><path id="Vector_38" d="M12.6583,1.1189c0.055,-0.111 0.14,-0.204 0.245,-0.269c0.104,-0.065 0.226,-0.1 0.349,-0.1c0.123,0 0.245,0.035 0.349,0.1c0.105,0.065 0.19,0.158 0.245,0.269l2.887,5.848c0.19,0.385 0.471,0.718 0.819,0.971c0.347,0.253 0.75,0.417 1.175,0.479l6.457,0.945c0.123,0.018 0.238,0.07 0.332,0.149c0.095,0.08 0.165,0.185 0.204,0.302c0.038,0.118 0.042,0.244 0.013,0.364c-0.03,0.12 -0.092,0.229 -0.181,0.315l-4.67,4.548c-0.308,0.3 -0.538,0.671 -0.671,1.08c-0.134,0.408 -0.165,0.844 -0.093,1.267l1.103,6.425c0.021,0.123 0.008,0.249 -0.038,0.364c-0.047,0.115 -0.125,0.215 -0.225,0.288c-0.101,0.073 -0.22,0.116 -0.344,0.125c-0.124,0.008 -0.247,-0.018 -0.357,-0.077l-5.773,-3.035c-0.38,-0.199 -0.803,-0.304 -1.233,-0.304c-0.429,0 -0.852,0.105 -1.233,0.304l-5.771,3.035c-0.11,0.059 -0.233,0.085 -0.357,0.076c-0.124,-0.009 -0.242,-0.052 -0.343,-0.125c-0.1,-0.073 -0.178,-0.173 -0.224,-0.288c-0.047,-0.115 -0.06,-0.24 -0.039,-0.363l1.102,-6.423c0.072,-0.424 0.041,-0.86 -0.092,-1.269c-0.133,-0.409 -0.364,-0.78 -0.672,-1.08l-4.67,-4.546c-0.089,-0.086 -0.153,-0.196 -0.183,-0.316c-0.03,-0.121 -0.025,-0.247 0.013,-0.365c0.038,-0.118 0.109,-0.223 0.204,-0.303c0.095,-0.08 0.211,-0.131 0.333,-0.149l6.457,-0.944c0.425,-0.061 0.829,-0.226 1.177,-0.478c0.347,-0.253 0.629,-0.586 0.819,-0.972z" stroke="white" stroke-width="1.5" stroke-linecap="round" stroke-linejoin="round"/></svg>