<svg viewBox="0 0 43.6667 43.6667" fill="none" xmlns="http://www.w3.org/2000/svg" xmlns:xlink="http://www.w3.org/1999/xlink" x="0" y="0"><g id="Vector_47">
<path d="M21.8334,42.6635c11.506,0 20.833,-9.32 20.833,-20.83c0,-11.51 -9.327,-20.83 -20.833,-20.83c-11.506,0 -20.833,9.32 -20.833,20.83c0,11.51 9.327,20.83 20.833,20.83z" stroke="white" stroke-width="2" stroke-linecap="round" stroke-linejoin="round"/>
<path d="M21.8334,34.3335c6.904,0 12.5,-5.6 12.5,-12.5c0,-6.9 -5.596,-12.5 -12.5,-12.5c-6.904,0 -12.5,5.6 -12.5,12.5c0,6.9 5.596,12.5 12.5,12.5z" stroke="white" stroke-width="2" stroke-linecap="round" stroke-linejoin="round"/>
<path d="M21.8334,26.0035c2.301,0 4.167,-1.87 4.167,-4.17c0,-2.3 -1.866,-4.17 -4.167,-4.17c-2.301,0 -4.167,1.87 -4.167,4.17c0,2.3 1.866,4.17 4.167,4.17z" stroke="white" stroke-width="2" stroke-linecap="round" stroke-linejoin="round"/>
</g></svg>