<svg viewBox="0 0 17.6667 17.6667" fill="none" xmlns="http://www.w3.org/2000/svg" xmlns:xlink="http://www.w3.org/1999/xlink" x="0" y="0"><g id="Vector">
<path d="M8.8333,17.1664c4.602,0 8.333,-3.731 8.333,-8.333c0,-4.602 -3.731,-8.333 -8.333,-8.333c-4.602,0 -8.333,3.731 -8.333,8.333c0,4.602 3.731,8.333 8.333,8.333z" stroke="white" stroke-linecap="round" stroke-linejoin="round"/>
<path d="M8.8333,13.8334c2.761,0 5,-2.239 5,-5c0,-2.761 -2.239,-5 -5,-5c-2.761,0 -5,2.239 -5,5c0,2.761 2.239,5 5,5z" stroke="white" stroke-linecap="round" stroke-linejoin="round"/>
<path d="M8.8333,10.5004c0.92,0 1.667,-0.747 1.667,-1.667c0,-0.921 -0.747,-1.667 -1.667,-1.667c-0.92,0 -1.667,0.746 -1.667,1.667c0,0.92 0.747,1.667 1.667,1.667z" stroke="white" stroke-linecap="round" stroke-linejoin="round"/>
</g></svg>