<svg viewBox="0 0 43.6667 39.5" fill="none" xmlns="http://www.w3.org/2000/svg" xmlns:xlink="http://www.w3.org/1999/xlink" x="0" y="0"><path id="Vector_46" d="M34.3333,38.5c0,-4.42 -1.756,-8.66 -4.882,-11.79c-3.125,-3.12 -7.364,-4.88 -11.785,-4.88M17.6663,21.83c-4.42,0 -8.659,1.76 -11.785,4.88c-3.125,3.13 -4.881,7.37 -4.881,11.79M17.6663,21.83c5.753,0 10.417,-4.66 10.417,-10.41c0,-5.76 -4.664,-10.42 -10.417,-10.42c-5.753,0 -10.416,4.66 -10.416,10.42c0,5.75 4.663,10.41 10.416,10.41zM42.6663,36.42c0,-7.02 -4.166,-13.55 -8.333,-16.67c1.37,-1.03 2.465,-2.38 3.189,-3.93c0.724,-1.55 1.054,-3.26 0.961,-4.97c-0.093,-1.71 -0.605,-3.37 -1.493,-4.83c-0.887,-1.47 -2.122,-2.69 -3.594,-3.56" stroke="white" stroke-width="2" stroke-linecap="round" stroke-linejoin="round"/></svg>