<svg viewBox="0 0 35.3333 32" fill="none" xmlns="http://www.w3.org/2000/svg" xmlns:xlink="http://www.w3.org/1999/xlink" x="0" y="0"><path id="Vector_7" d="M27.6667,31c0,-3.54 -1.405,-6.93 -3.905,-9.43c-2.501,-2.5 -5.892,-3.9 -9.428,-3.9M14.3337,17.67c-3.537,0 -6.928,1.4 -9.428,3.9c-2.501,2.5 -3.906,5.89 -3.906,9.43M14.3337,17.67c4.602,0 8.333,-3.73 8.333,-8.34c0,-4.6 -3.731,-8.33 -8.333,-8.33c-4.603,0 -8.334,3.73 -8.334,8.33c0,4.61 3.731,8.34 8.334,8.34zM34.3337,29.33c0,-5.61 -3.334,-10.83 -6.667,-13.33c1.096,-0.82 1.972,-1.9 2.551,-3.14c0.579,-1.24 0.843,-2.61 0.769,-3.98c-0.074,-1.36 -0.484,-2.69 -1.194,-3.86c-0.71,-1.18 -1.698,-2.15 -2.876,-2.85" stroke="#6C5CE7" stroke-width="2" stroke-linecap="round" stroke-linejoin="round"/></svg>