<svg viewBox="0 0 35.3333 32" fill="none" xmlns="http://www.w3.org/2000/svg" xmlns:xlink="http://www.w3.org/1999/xlink" x="0" y="0"><g id="Vector_62">
<path d="M17.6666,31c1.84,0 3.33,-1.49 3.33,-3.33c0,-1.84 -1.49,-3.34 -3.33,-3.34c-1.84,0 -3.33,1.5 -3.33,3.34c0,1.84 1.49,3.33 3.33,3.33z" stroke="white" stroke-width="2" stroke-linecap="round" stroke-linejoin="round"/>
<path d="M17.6666,7.67c1.84,0 3.33,-1.5 3.33,-3.34c0,-1.84 -1.49,-3.33 -3.33,-3.33c-1.84,0 -3.33,1.49 -3.33,3.33c0,1.84 1.49,3.34 3.33,3.34z" stroke="white" stroke-width="2" stroke-linecap="round" stroke-linejoin="round"/>
<path d="M24.3366,19.33c1.84,0 3.33,-1.49 3.33,-3.33c0,-1.84 -1.49,-3.33 -3.33,-3.33c-1.84,0 -3.34,1.49 -3.34,3.33c0,1.84 1.5,3.33 3.34,3.33z" stroke="white" stroke-width="2" stroke-linecap="round" stroke-linejoin="round"/>
<path d="M30.9966,31c1.84,0 3.34,-1.49 3.34,-3.33c0,-1.84 -1.5,-3.34 -3.34,-3.34c-1.84,0 -3.33,1.5 -3.33,3.34c0,1.84 1.49,3.33 3.33,3.33z" stroke="white" stroke-width="2" stroke-linecap="round" stroke-linejoin="round"/>
<path d="M4.3366,31c1.84,0 3.33,-1.49 3.33,-3.33c0,-1.84 -1.49,-3.34 -3.33,-3.34c-1.84,0 -3.34,1.5 -3.34,3.34c0,1.84 1.5,3.33 3.34,3.33z" stroke="white" stroke-width="2" stroke-linecap="round" stroke-linejoin="round"/>
<path d="M10.9966,19.33c1.84,0 3.34,-1.49 3.34,-3.33c0,-1.84 -1.5,-3.33 -3.34,-3.33c-1.84,0 -3.33,1.49 -3.33,3.33c0,1.84 1.49,3.33 3.33,3.33z" stroke="white" stroke-width="2" stroke-linecap="round" stroke-linejoin="round"/>
</g></svg>