<svg viewBox="0 0 26.5 24" fill="none" xmlns="http://www.w3.org/2000/svg" xmlns:xlink="http://www.w3.org/1999/xlink" x="0" y="0"><path id="Vector_39" d="M20.75,23.25c0,-2.652 -1.054,-5.196 -2.929,-7.071c-1.875,-1.875 -4.419,-2.929 -7.071,-2.929M10.75,13.25c-2.652,0 -5.196,1.054 -7.071,2.929c-1.875,1.875 -2.929,4.419 -2.929,7.071M10.75,13.25c3.452,0 6.25,-2.798 6.25,-6.25c0,-3.452 -2.798,-6.25 -6.25,-6.25c-3.452,0 -6.25,2.798 -6.25,6.25c0,3.452 2.798,6.25 6.25,6.25zM25.75,22c0,-4.212 -2.5,-8.125 -5,-10c0.822,-0.617 1.479,-1.426 1.913,-2.357c0.435,-0.931 0.633,-1.955 0.577,-2.981c-0.056,-1.026 -0.363,-2.022 -0.896,-2.901c-0.532,-0.878 -1.273,-1.612 -2.157,-2.136" stroke="white" stroke-width="1.5" stroke-linecap="round" stroke-linejoin="round"/></svg>