<svg viewBox="0 0 58.3794 58.3794" fill="none" xmlns="http://www.w3.org/2000/svg" xmlns:xlink="http://www.w3.org/1999/xlink" x="0" y="0"><path id="Vector_30" opacity="0.2" d="M28.8497,6.102c0.16,-0.562 0.51,-1.049 0.99,-1.379c0.48,-0.33 1.06,-0.481 1.65,-0.428c0.58,0.054 1.12,0.309 1.53,0.721c0.42,0.412 0.67,0.956 0.72,1.537l1.34,14.074c0.1,1.001 0.49,1.949 1.14,2.722c0.64,0.773 1.5,1.334 2.47,1.611l13.59,3.891c0.56,0.159 1.05,0.51 1.38,0.991c0.33,0.481 0.48,1.062 0.42,1.643c-0.05,0.581 -0.3,1.125 -0.72,1.537c-0.41,0.413 -0.95,0.668 -1.53,0.722l-14.08,1.341c-1,0.095 -1.95,0.489 -2.72,1.132c-0.77,0.642 -1.33,1.503 -1.61,2.469l-3.89,13.592c-0.16,0.561 -0.51,1.049 -0.99,1.379c-0.48,0.329 -1.06,0.481 -1.65,0.427c-0.58,-0.053 -1.12,-0.308 -1.53,-0.721c-0.42,-0.412 -0.67,-0.956 -0.72,-1.536l-1.34,-14.075c-0.1,-1 -0.49,-1.949 -1.14,-2.722c-0.64,-0.773 -1.5,-1.334 -2.47,-1.611l-13.59,-3.891c-0.56,-0.159 -1.05,-0.509 -1.38,-0.991c-0.33,-0.481 -0.48,-1.062 -0.42,-1.643c0.05,-0.58 0.3,-1.124 0.72,-1.537c0.41,-0.412 0.95,-0.668 1.53,-0.722l14.08,-1.34c1,-0.095 1.95,-0.49 2.72,-1.132c0.77,-0.643 1.33,-1.503 1.61,-2.47z" stroke="#2ED573" stroke-width="4" stroke-linecap="round" stroke-linejoin="round"/></svg>