<svg viewBox="0 0 1280 135.8099" fill="none" xmlns="http://www.w3.org/2000/svg" xmlns:xlink="http://www.w3.org/1999/xlink" id="dd7f092a" x="0" y="0"><g id="Landing page" data-node-id="201:5349" clip-path="url(#clip0_201_5349)"><g id="award (2) 1" data-node-id="201:5566" clip-path="url(#clip6_201_5349)"><path id="Vector_27" data-node-id="201:5567" opacity="0.2" d="M608,44.8099c8.284,0 15,-6.716 15,-15c0,-8.284 -6.716,-15 -15,-15c-8.284,0 -15,6.716 -15,15c0,8.284 6.716,15 15,15z" stroke="#FF8D28" stroke-width="4" stroke-linecap="round" stroke-linejoin="round"/><path id="Vector_29" data-node-id="201:5569" opacity="0.2" d="M107.062,3.9539c0.011,-0.467 0.185,-0.915 0.491,-1.267c0.306,-0.352 0.726,-0.586 1.187,-0.661c0.46,-0.075 0.932,0.014 1.335,0.25c0.402,0.237 0.709,0.607 0.867,1.045l3.862,10.631c0.274,0.756 0.77,1.412 1.422,1.881c0.653,0.47 1.432,0.732 2.236,0.752l11.307,0.287c0.466,0.011 0.914,0.185 1.266,0.491c0.352,0.306 0.586,0.726 0.661,1.187c0.075,0.46 -0.014,0.932 -0.25,1.335c-0.237,0.402 -0.606,0.709 -1.045,0.867l-10.631,3.861c-0.756,0.275 -1.411,0.771 -1.881,1.423c-0.47,0.653 -0.732,1.432 -0.752,2.236l-0.287,11.306c-0.011,0.467 -0.184,0.915 -0.491,1.267c-0.306,0.352 -0.726,0.586 -1.186,0.661c-0.461,0.075 -0.933,-0.014 -1.335,-0.25c-0.403,-0.237 -0.71,-0.606 -0.868,-1.045l-3.861,-10.631c-0.275,-0.756 -0.771,-1.411 -1.423,-1.881c-0.653,-0.47 -1.432,-0.732 -2.236,-0.752l-11.3063,-0.287c-0.4665,-0.011 -0.9145,-0.184 -1.2665,-0.491c-0.3519,-0.306 -0.5857,-0.726 -0.6607,-1.186c-0.0751,-0.461 0.0133,-0.933 0.2498,-1.336c0.2365,-0.402 0.6063,-0.709 1.0452,-0.867l10.6305,-3.861c0.756,-0.275 1.412,-0.771 1.881,-1.423c0.47,-0.653 0.732,-1.432 0.752,-2.236z" stroke="#2ED573" stroke-width="4" stroke-linecap="round" stroke-linejoin="round"/><g id="Waves" data-node-id="201:5606">
<g id="Vector_40" data-node-id="201:5607">
<path fill-rule="evenodd" clip-rule="evenodd" d="M1280,42.3139l-71.47,-8.055c-70.4,-8.055 -213.33,-24.165 -355.197,-18.123c-141.866,6.041 -284.8,34.234 -426.666,38.261c-141.867,4.028 -284.8,-16.11 -355.2003,-26.179l-71.46667,-10.069v96.661h71.46667c70.4003,0 213.3333,0 355.2003,0c141.866,0 284.8,0 426.666,0c141.867,0 284.797,0 355.197,0h71.47z" fill="#B9B4C8"/>
<path fill-rule="evenodd" clip-rule="evenodd" d="M0,69.3139l71.4667,-8.055c70.4003,-8.055 213.3333,-24.165 355.2003,-18.123c141.866,6.041 284.8,34.234 426.666,38.261c141.867,4.028 284.797,-16.11 355.197,-26.179l71.47,-10.069v96.661h-71.47c-70.4,0 -213.33,0 -355.197,0c-141.866,0 -284.8,0 -426.666,0c-141.867,0 -284.8,0 -355.2003,0h-71.4667z" fill="#CDCBD8"/>
<path fill-rule="evenodd" clip-rule="evenodd" d="M1280,92.0899l-71.47,-8.055c-70.4,-8.055 -208.16,-24.99 -350.03,-18.949c-141.867,6.041 -289.967,35.06 -431.833,39.087c-141.867,4.028 -284.8,-16.11 -355.2003,-26.179l-71.4667,-10.069v96.661h71.4667c70.4003,0 213.3333,0 355.2003,0c141.866,0 284.8,0 426.666,0c141.867,0 284.797,0 355.197,0h71.47z" fill="#E6E5EB"/>
<path fill-rule="evenodd" clip-rule="evenodd" d="M0,119.0669l71.4667,-12.083c70.4003,-12.082 213.3333,-36.248 355.2003,-27.186c141.866,9.062 284.8,51.351 426.666,57.393c141.867,6.041 284.797,-24.166 355.197,-39.269l71.47,-15.103v144.991h-71.47c-70.4,0 -213.33,0 -355.197,0c-141.866,0 -284.8,0 -426.666,0c-141.867,0 -284.8,0 -355.2003,0h-71.4667z" fill="white"/>
</g>
</g></g></g><defs><clipPath id="clip0_201_5349">
<rect width="1280" height="5559" fill="white" x="0" y="-643.1901"/>
</clipPath><clipPath id="clip6_201_5349">
<rect width="1280" height="779" fill="white" x="0" y="-643.1901"/>
</clipPath></defs></svg>