<svg width="1280" height="181" viewBox="0 0 1280 181" fill="none" xmlns="http://www.w3.org/2000/svg">
  <path fill-rule="evenodd" clip-rule="evenodd" d="M1280 48.0769L1208.53 35.0961C1138.13 22.1153 995.2 -3.84621 853.333 0.480715C711.467 4.80764 568.533 39.423 426.667 48.0769C284.8 56.7307 141.867 39.423 71.4667 30.7692L0 22.1153V100H71.4667C141.867 100 284.8 100 426.667 100C568.533 100 711.467 100 853.333 100C995.2 100 1138.13 100 1208.53 100H1280V48.0769Z" fill="#E9E7FB"/>
  <path fill-rule="evenodd" clip-rule="evenodd" d="M0 76.0769L71.4667 63.0961C141.867 50.1153 284.8 24.1538 426.667 28.4807C568.533 32.8076 711.467 67.423 853.333 76.0769C995.2 84.7307 1138.13 67.423 1208.53 58.7692L1280 50.1153V128H1208.53C1138.13 128 995.2 128 853.333 128C711.467 128 568.533 128 426.667 128C284.8 128 141.867 128 71.4667 128H0V76.0769Z" fill="#8067F6"/>
  <path fill-rule="evenodd" clip-rule="evenodd" d="M1280 104.077L1208.53 91.0961C1138.13 78.1153 995.2 52.1538 853.333 56.4807C711.467 60.8076 568.533 95.423 426.667 104.077C284.8 112.731 141.867 95.423 71.4667 86.7692L0 78.1153V156H71.4667C141.867 156 284.8 156 426.667 156C568.533 156 711.467 156 853.333 156C995.2 156 1138.13 156 1208.53 156H1280V104.077Z" fill="#200060"/>
  <path fill-rule="evenodd" clip-rule="evenodd" d="M0 129.077L71.4667 116.096C141.867 103.115 284.8 77.1538 426.667 81.4807C568.533 85.8076 711.467 120.423 853.333 129.077C995.2 137.731 1138.13 120.423 1208.53 111.769L1280 103.115V181H1208.53C1138.13 181 995.2 181 853.333 181C711.467 181 568.533 181 426.667 181C284.8 181 141.867 181 71.4667 181H0V129.077Z" fill="white"/>
</svg>
