<svg width="375" height="62" viewBox="0 0 375 62" fill="none" xmlns="http://www.w3.org/2000/svg">
<path fill-rule="evenodd" clip-rule="evenodd" d="M375 8.006L354.062 5.66134C333.437 3.31667 291.562 -1.37266 250 0.385841C208.438 2.14434 166.562 10.3507 125 11.523C83.4375 12.6953 41.5625 6.83367 20.9375 3.90284L8.9407e-06 0.972007V29.108H20.9375C41.5625 29.108 83.4375 29.108 125 29.108C166.562 29.108 208.438 29.108 250 29.108C291.562 29.108 333.437 29.108 354.062 29.108H375V8.006Z" fill="#B9B4C8"/>
<path fill-rule="evenodd" clip-rule="evenodd" d="M0 15.8652L20.9375 13.5205C41.5625 11.1758 83.4375 6.4865 125 8.245C166.562 10.0035 208.437 18.2098 250 19.3822C291.562 20.5545 333.438 14.6928 354.062 11.762L375 8.83116V36.9671H354.062C333.438 36.9671 291.562 36.9671 250 36.9671C208.437 36.9671 166.562 36.9671 125 36.9671C83.4375 36.9671 41.5625 36.9671 20.9375 36.9671H0V15.8652Z" fill="#CDCBD8"/>
<path fill-rule="evenodd" clip-rule="evenodd" d="M375 22.4948L354.062 20.1501C333.437 17.8054 293.076 12.8758 251.514 14.6343C209.951 16.3928 166.562 24.8394 125 26.0118C83.4375 27.1841 41.5625 21.3224 20.9375 18.3916L0 15.4608V43.5968H20.9375C41.5625 43.5968 83.4375 43.5968 125 43.5968C166.562 43.5968 208.438 43.5968 250 43.5968C291.562 43.5968 333.437 43.5968 354.062 43.5968H375V22.4948Z" fill="#E6E5EB"/>
<path fill-rule="evenodd" clip-rule="evenodd" d="M0 30.347L20.9375 26.83C41.5625 23.313 83.4375 16.279 125 18.9168C166.562 21.5545 208.437 33.864 250 35.6225C291.562 37.381 333.437 28.5885 354.062 24.1923L375 19.796V62H354.062C333.437 62 291.562 62 250 62C208.437 62 166.562 62 125 62C83.4375 62 41.5625 62 20.9375 62H0V30.347Z" fill="white"/>
</svg>
