<svg viewBox="0 0 46.8114 73.8114" fill="none" xmlns="http://www.w3.org/2000/svg" xmlns:xlink="http://www.w3.org/1999/xlink" x="0" y="0"><path id="Vector_31" opacity="0.2" d="M-10.1427,25.4497c-0.402,-0.4226 -0.6435,-0.9725 -0.6827,-1.5544c-0.0393,-0.582 0.1262,-1.1593 0.4679,-1.6321c0.3416,-0.4728 0.83779,-0.8111 1.40264,-0.9566c0.56485,-0.1454 1.16278,-0.0887 1.69022,0.1603l12.79816,6.0072c0.90978,0.4272 1.92722,0.5703 2.91954,0.4105c0.99232,-0.1598 1.91344,-0.615 2.64314,-1.3062l10.2654,-9.7211c0.4227,-0.402 0.9726,-0.6435 1.5545,-0.6828c0.582,-0.0392 1.1593,0.1263 1.6321,0.4679c0.4727,0.3417 0.8111,0.8379 0.9565,1.4027c0.1455,0.5649 0.0888,1.1628 -0.1603,1.6902l-6.0071,12.7982c-0.4273,0.9098 -0.5703,1.9272 -0.4105,2.9195c0.1597,0.9924 0.615,1.9135 1.3062,2.6431l9.721,10.2659c0.402,0.422 0.6436,0.972 0.6828,1.554c0.0393,0.582 -0.1263,1.159 -0.4679,1.632c-0.3416,0.473 -0.8378,0.811 -1.4027,0.957c-0.5648,0.145 -1.1627,0.088 -1.6902,-0.161l-12.7981,-6.007c-0.9098,-0.427 -1.9273,-0.57 -2.9196,-0.41c-0.9923,0.16 -1.91339,0.615 -2.64307,1.306l-10.26549,9.721c-0.42261,0.402 -0.97251,0.644 -1.55446,0.683c-0.58195,0.039 -1.1593,-0.126 -1.63205,-0.468c-0.47276,-0.342 -0.81115,-0.838 -0.95658,-1.403c-0.14542,-0.565 -0.08872,-1.163 0.16029,-1.69l6.00718,-12.798c0.42724,-0.91 0.5703,-1.9274 0.4105,-2.9197c-0.15979,-0.9923 -0.61501,-1.9134 -1.30624,-2.6431z" stroke="#2D9CDB" stroke-width="4" stroke-linecap="round" stroke-linejoin="round"/></svg>