<svg width="126" height="50" viewBox="0 0 126 50" fill="none" xmlns="http://www.w3.org/2000/svg">
<path d="M12.9144 40.6C10.8518 40.6 9.12191 40.1 7.72468 39.1C6.32746 38.0866 5.26956 36.72 4.55098 35C3.83241 33.28 3.47312 31.34 3.47312 29.18C3.47312 27.02 3.82576 25.08 4.53102 23.36C5.24959 21.64 6.30085 20.2866 7.68476 19.3C9.08199 18.3 10.7986 17.8 12.8345 17.8C14.8572 17.8 16.6004 18.3 18.0642 19.3C19.5412 20.2866 20.679 21.64 21.4774 23.36C22.2758 25.0666 22.675 27.0066 22.675 29.18C22.675 31.34 22.2758 33.2866 21.4774 35.02C20.6923 36.74 19.5678 38.1 18.1041 39.1C16.6536 40.1 14.9238 40.6 12.9144 40.6ZM2.77451 40V11.2H6.96619V24.46H6.48714V40H2.77451ZM12.3355 36.82C13.6663 36.82 14.7641 36.48 15.629 35.8C16.5073 35.12 17.1593 34.2066 17.5851 33.06C18.0242 31.9 18.2438 30.6066 18.2438 29.18C18.2438 27.7666 18.0242 26.4866 17.5851 25.34C17.1593 24.1934 16.5006 23.28 15.609 22.6C14.7174 21.92 13.5797 21.58 12.1958 21.58C10.8917 21.58 9.81388 21.9 8.96223 22.54C8.12389 23.18 7.49847 24.0734 7.08595 25.22C6.68674 26.3666 6.48714 27.6866 6.48714 29.18C6.48714 30.6734 6.68674 31.9934 7.08595 33.14C7.48516 34.2866 8.11724 35.1866 8.98219 35.84C9.84714 36.4934 10.9649 36.82 12.3355 36.82Z" fill="white"/>
<path d="M30.8687 40.6C28.713 40.6 26.8434 40.1134 25.2599 39.14C23.6764 38.1666 22.4521 36.8266 21.5872 35.12C20.7355 33.4 20.3097 31.42 20.3097 29.18C20.3097 26.9266 20.7488 24.9466 21.6271 23.24C22.5053 21.52 23.7363 20.1866 25.3198 19.24C26.9032 18.28 28.7529 17.8 30.8687 17.8C33.0245 17.8 34.8941 18.2866 36.4776 19.26C38.0611 20.2334 39.2854 21.5734 40.1503 23.28C41.0152 24.9866 41.4478 26.9534 41.4478 29.18C41.4478 31.4334 41.0086 33.42 40.1304 35.14C39.2655 36.8466 38.0411 38.1866 36.4577 39.16C34.8742 40.12 33.0111 40.6 30.8687 40.6ZM30.8687 36.66C32.9313 36.66 34.4682 35.9666 35.4796 34.58C36.5042 33.18 37.0165 31.38 37.0165 29.18C37.0165 26.9266 36.4976 25.1266 35.4596 23.78C34.435 22.42 32.9047 21.74 30.8687 21.74C29.4715 21.74 28.3204 22.06 27.4156 22.7C26.5108 23.3266 25.8387 24.2 25.3996 25.32C24.9605 26.4266 24.7409 27.7134 24.7409 29.18C24.7409 31.4466 25.2599 33.26 26.2978 34.62C27.3358 35.98 28.8594 36.66 30.8687 36.66ZM47.2113 40V17.64C47.2113 17.0934 47.2313 16.5134 47.2712 15.9C47.3111 15.2734 47.4243 14.66 47.6105 14.06C47.8101 13.4466 48.1361 12.8866 48.5886 12.38C49.1341 11.78 49.7329 11.3533 50.385 11.1C51.0371 10.8466 51.6824 10.7 52.3212 10.66C52.9733 10.62 53.5721 10.6 54.1176 10.6H56.8322V14.04H54.3172C53.3325 14.04 52.594 14.2866 52.1016 14.78C51.6226 15.26 51.383 15.9466 51.383 16.84V40H47.2113ZM43.6384 21.76V18.4H56.8322V21.76H43.6384ZM60.2654 40V17.64C60.2654 17.0934 60.2854 16.5134 60.3253 15.9C60.3652 15.2734 60.4784 14.66 60.6646 14.06C60.8642 13.4466 61.1902 12.8866 61.6427 12.38C62.1882 11.78 62.787 11.3533 63.4391 11.1C64.0912 10.8466 64.7365 10.7 65.3753 10.66C66.0274 10.62 66.6262 10.6 67.1717 10.6H69.8863V14.04H67.3713C66.3866 14.04 65.6481 14.2866 65.1557 14.78C64.6767 15.26 64.4371 15.9466 64.4371 16.84V40H60.2654ZM56.6925 21.76V18.4H69.8863V21.76H56.6925ZM73.4559 14.86V10.8H77.6276V14.86H73.4559ZM73.4559 40V18.4H77.6276V40H73.4559ZM98.1527 40V29.38C98.1527 28.54 98.0795 27.68 97.9332 26.8C97.8001 25.9066 97.534 25.08 97.1348 24.32C96.7489 23.56 96.1966 22.9466 95.478 22.48C94.7728 22.0134 93.8479 21.78 92.7036 21.78C91.9584 21.78 91.2531 21.9066 90.5878 22.16C89.9224 22.4 89.3369 22.7934 88.8312 23.34C88.3388 23.8866 87.9464 24.6066 87.6536 25.5C87.3741 26.3934 87.2344 27.48 87.2344 28.76L84.6396 27.78C84.6396 25.82 85.0054 24.0934 85.7374 22.6C86.4693 21.0934 87.5205 19.92 88.8911 19.08C90.2618 18.24 91.9185 17.82 93.8613 17.82C95.3517 17.82 96.6024 18.06 97.6138 18.54C98.6252 19.02 99.4436 19.6533 100.069 20.44C100.708 21.2134 101.193 22.06 101.526 22.98C101.859 23.9 102.085 24.8 102.205 25.68C102.324 26.56 102.384 27.3334 102.384 28V40H98.1527ZM83.0028 40V18.4H86.7354V24.64H87.2344V40H83.0028ZM115.228 40.58C112.607 40.58 110.471 40 108.821 38.84C107.171 37.68 106.16 36.0466 105.787 33.94L110.058 33.28C110.325 34.4 110.937 35.2866 111.895 35.94C112.866 36.58 114.071 36.9 115.508 36.9C116.812 36.9 117.83 36.6334 118.562 36.1C119.307 35.5666 119.679 34.8334 119.679 33.9C119.679 33.3534 119.546 32.9134 119.28 32.58C119.027 32.2334 118.488 31.9066 117.663 31.6C116.838 31.2934 115.581 30.9134 113.891 30.46C112.041 29.98 110.571 29.4666 109.48 28.92C108.402 28.36 107.63 27.7134 107.164 26.98C106.712 26.2334 106.486 25.3334 106.486 24.28C106.486 22.9734 106.832 21.8334 107.524 20.86C108.216 19.8866 109.187 19.1334 110.438 18.6C111.702 18.0666 113.179 17.8 114.869 17.8C116.519 17.8 117.989 18.06 119.28 18.58C120.571 19.1 121.616 19.84 122.414 20.8C123.212 21.7466 123.691 22.86 123.851 24.14L119.58 24.92C119.433 23.88 118.947 23.06 118.122 22.46C117.298 21.86 116.226 21.5334 114.909 21.48C113.645 21.4266 112.62 21.64 111.835 22.12C111.05 22.5866 110.657 23.2333 110.657 24.06C110.657 24.54 110.804 24.9466 111.096 25.28C111.402 25.6134 111.988 25.9334 112.853 26.24C113.718 26.5466 114.995 26.9134 116.685 27.34C118.495 27.8066 119.932 28.3266 120.997 28.9C122.061 29.46 122.82 30.1334 123.272 30.92C123.738 31.6934 123.971 32.6334 123.971 33.74C123.971 35.8734 123.192 37.5466 121.636 38.76C120.092 39.9734 117.956 40.58 115.228 40.58Z" fill="white"/>
<path d="M77.9703 10.625H72.9802V15.625H77.9703V10.625Z" fill="#6C5CE7"/>
</svg>
